<svg width="1440" height="80" viewBox="0 0 1440 80" fill="none" xmlns="http://www.w3.org/2000/svg">
<path d="M136.047 47.4375L121.016 41.1719V38L136.047 31.7188V35.8438L126.766 39.5781L136.047 43.2969V47.4375ZM149.531 26.7188L142.031 52.9844H137.25L144.797 26.7188H149.531ZM166.062 42.0156C166.062 44.5573 166 46.3594 165.875 47.4219C165.76 48.474 165.385 49.4375 164.75 50.3125C164.125 51.1875 163.276 51.8594 162.203 52.3281C161.13 52.7969 159.88 53.0312 158.453 53.0312C157.099 53.0312 155.88 52.8125 154.797 52.375C153.724 51.9271 152.859 51.2604 152.203 50.375C151.547 49.4896 151.156 48.526 151.031 47.4844C150.906 46.4427 150.844 44.6198 150.844 42.0156V37.6875C150.844 35.1458 150.901 33.349 151.016 32.2969C151.141 31.2344 151.516 30.2656 152.141 29.3906C152.776 28.5156 153.63 27.8438 154.703 27.375C155.776 26.9062 157.026 26.6719 158.453 26.6719C159.807 26.6719 161.021 26.8958 162.094 27.3438C163.177 27.7812 164.047 28.4427 164.703 29.3281C165.359 30.2135 165.75 31.1771 165.875 32.2188C166 33.2604 166.062 35.0833 166.062 37.6875V42.0156ZM159.484 33.7031C159.484 32.526 159.417 31.776 159.281 31.4531C159.156 31.1198 158.891 30.9531 158.484 30.9531C158.141 30.9531 157.875 31.0885 157.688 31.3594C157.51 31.6198 157.422 32.401 157.422 33.7031V45.5156C157.422 46.9844 157.479 47.8906 157.594 48.2344C157.719 48.5781 158 48.75 158.438 48.75C158.885 48.75 159.172 48.5521 159.297 48.1562C159.422 47.7604 159.484 46.8177 159.484 45.3281V33.7031ZM249.891 31.7188L264.922 37.9688V41.1562L249.891 47.4375V43.3125L259.172 39.5781L249.891 35.8594V31.7188Z" fill="#FF8303"/>
<path d="M174.766 31.7656L174.656 33.6719C175.115 32.9115 175.672 32.3438 176.328 31.9688C176.995 31.5833 177.76 31.3906 178.625 31.3906C179.708 31.3906 180.594 31.6458 181.281 32.1562C181.969 32.6667 182.411 33.3125 182.609 34.0938C182.807 34.8646 182.906 36.1562 182.906 37.9688V52.5H176.594V38.1406C176.594 36.7135 176.547 35.8438 176.453 35.5312C176.359 35.2188 176.099 35.0625 175.672 35.0625C175.224 35.0625 174.943 35.2448 174.828 35.6094C174.714 35.9635 174.656 36.9219 174.656 38.4844V52.5H168.344V31.7656H174.766ZM191.75 29V32.2656H193.453V35.5469H191.75V46.6406C191.75 48.0052 191.818 48.7656 191.953 48.9219C192.099 49.0781 192.688 49.1562 193.719 49.1562V52.5H191.172C189.734 52.5 188.708 52.4427 188.094 52.3281C187.479 52.2031 186.938 51.9271 186.469 51.5C186 51.0625 185.708 50.5677 185.594 50.0156C185.479 49.4531 185.422 48.1406 185.422 46.0781V35.5469H184.062V32.2656H185.422V29H191.75ZM200.484 39.7969H194.562V38.4062C194.562 36.8021 194.745 35.5677 195.109 34.7031C195.484 33.8281 196.229 33.0573 197.344 32.3906C198.458 31.724 199.906 31.3906 201.688 31.3906C203.823 31.3906 205.432 31.7708 206.516 32.5312C207.599 33.2812 208.25 34.2083 208.469 35.3125C208.688 36.4062 208.797 38.6667 208.797 42.0938V52.5H202.656V50.6562C202.271 51.3958 201.771 51.9531 201.156 52.3281C200.552 52.6927 199.828 52.875 198.984 52.875C197.88 52.875 196.865 52.5677 195.938 51.9531C195.021 51.3281 194.562 49.9688 194.562 47.875V46.1719C194.562 44.6198 194.807 43.5625 195.297 43C195.786 42.4375 197 41.7812 198.938 41.0312C201.01 40.2188 202.12 39.6719 202.266 39.3906C202.411 39.1094 202.484 38.5365 202.484 37.6719C202.484 36.5885 202.401 35.8854 202.234 35.5625C202.078 35.2292 201.812 35.0625 201.438 35.0625C201.01 35.0625 200.745 35.2031 200.641 35.4844C200.536 35.7552 200.484 36.4688 200.484 37.625V39.7969ZM202.484 42.6406C201.474 43.3802 200.885 44 200.719 44.5C200.562 45 200.484 45.7188 200.484 46.6562C200.484 47.7292 200.552 48.4219 200.688 48.7344C200.833 49.0469 201.115 49.2031 201.531 49.2031C201.927 49.2031 202.182 49.0833 202.297 48.8438C202.422 48.5938 202.484 47.9479 202.484 46.9062V42.6406ZM217.469 27.2031V52.5H210.969V27.2031H217.469ZM234.047 42.5H225.875V46.9844C225.875 47.9219 225.943 48.526 226.078 48.7969C226.214 49.0677 226.474 49.2031 226.859 49.2031C227.339 49.2031 227.656 49.026 227.812 48.6719C227.979 48.3073 228.062 47.6094 228.062 46.5781V43.8438H234.047V45.375C234.047 46.6562 233.964 47.6406 233.797 48.3281C233.641 49.0156 233.266 49.75 232.672 50.5312C232.078 51.3125 231.323 51.901 230.406 52.2969C229.5 52.6823 228.359 52.875 226.984 52.875C225.651 52.875 224.474 52.6823 223.453 52.2969C222.432 51.9115 221.635 51.3854 221.062 50.7188C220.5 50.0417 220.109 49.3021 219.891 48.5C219.672 47.6875 219.562 46.5104 219.562 44.9688V38.9219C219.562 37.1094 219.807 35.6823 220.297 34.6406C220.786 33.5885 221.589 32.7865 222.703 32.2344C223.818 31.6719 225.099 31.3906 226.547 31.3906C228.318 31.3906 229.776 31.7292 230.922 32.4062C232.078 33.0729 232.885 33.9635 233.344 35.0781C233.812 36.1823 234.047 37.7396 234.047 39.75V42.5ZM227.719 39.125V37.6094C227.719 36.5365 227.661 35.8438 227.547 35.5312C227.432 35.2188 227.198 35.0625 226.844 35.0625C226.406 35.0625 226.135 35.1979 226.031 35.4688C225.927 35.7292 225.875 36.4427 225.875 37.6094V39.125H227.719ZM248.625 31.7656L246.109 41.6719L249.156 52.5H243.016C242.411 49.7708 241.953 47.4219 241.641 45.4531C241.224 47.9115 240.771 50.2604 240.281 52.5H235L237.719 41.6719L235 31.7656H240.281C241.125 35.9948 241.578 38.3958 241.641 38.9688C242.245 35.4375 242.703 33.0365 243.016 31.7656H248.625Z" fill="#F0E3CA"/>
<path d="M795.34 43.6H790.46L790.78 41.98H794.96L795.34 43.6ZM793 38.14L790.48 46.5H788.24L792.46 33.96H793.54L797.76 46.5H795.48L793 38.14ZM803.58 46.74C803.247 46.74 802.927 46.6933 802.62 46.6C802.313 46.5067 802.027 46.3667 801.76 46.18C801.507 45.98 801.273 45.7467 801.06 45.48L800.68 46.5H798.96V33.08H801.22H801.42V33.26C801.34 33.34 801.287 33.4267 801.26 33.52C801.247 33.6133 801.24 33.7733 801.24 34V38.24C801.387 38.0533 801.547 37.88 801.72 37.72C801.893 37.56 802.087 37.4267 802.3 37.32C802.513 37.2 802.733 37.1133 802.96 37.06C803.2 37.0067 803.44 36.98 803.68 36.98C804.253 36.98 804.767 37.08 805.22 37.28C805.687 37.48 806.08 37.78 806.4 38.18C806.733 38.5667 806.987 39.0533 807.16 39.64C807.347 40.2267 807.44 40.9133 807.44 41.7C807.44 42.5533 807.333 43.3 807.12 43.94C806.92 44.5667 806.64 45.0867 806.28 45.5C805.92 45.9133 805.507 46.2267 805.04 46.44C804.587 46.64 804.1 46.74 803.58 46.74ZM803.12 44.98C803.4 44.98 803.667 44.9267 803.92 44.82C804.173 44.7 804.393 44.52 804.58 44.28C804.767 44.04 804.913 43.7267 805.02 43.34C805.127 42.94 805.18 42.46 805.18 41.9C805.18 41.3933 805.133 40.94 805.04 40.54C804.947 40.14 804.813 39.8067 804.64 39.54C804.467 39.26 804.253 39.0467 804 38.9C803.76 38.7533 803.48 38.68 803.16 38.68C802.773 38.68 802.433 38.8067 802.14 39.06C801.86 39.3 801.647 39.6533 801.5 40.12C801.353 40.5867 801.273 41.1467 801.26 41.8C801.26 42.3067 801.293 42.76 801.36 43.16C801.44 43.5467 801.553 43.88 801.7 44.16C801.86 44.4267 802.053 44.6333 802.28 44.78C802.52 44.9133 802.8 44.98 803.12 44.98ZM812.98 46.7C812.153 46.7 811.4 46.5 810.72 46.1C810.053 45.6867 809.527 45.1133 809.14 44.38C808.753 43.6467 808.56 42.8 808.56 41.84C808.56 40.92 808.753 40.0933 809.14 39.36C809.527 38.6267 810.053 38.0467 810.72 37.62C811.4 37.1933 812.153 36.98 812.98 36.98C813.82 36.98 814.573 37.1933 815.24 37.62C815.92 38.0467 816.453 38.6267 816.84 39.36C817.24 40.0933 817.44 40.92 817.44 41.84C817.44 42.8 817.24 43.6467 816.84 44.38C816.453 45.1133 815.92 45.6867 815.24 46.1C814.573 46.5 813.82 46.7 812.98 46.7ZM812.98 44.9C813.42 44.9 813.8 44.7733 814.12 44.52C814.44 44.2533 814.693 43.8933 814.88 43.44C815.08 42.9733 815.18 42.44 815.18 41.84C815.18 41.2133 815.08 40.6733 814.88 40.22C814.693 39.7667 814.44 39.42 814.12 39.18C813.8 38.9267 813.42 38.8 812.98 38.8C812.58 38.8 812.213 38.9267 811.88 39.18C811.56 39.42 811.3 39.7667 811.1 40.22C810.913 40.6733 810.82 41.2133 810.82 41.84C810.82 42.44 810.913 42.9733 811.1 43.44C811.287 43.8933 811.54 44.2533 811.86 44.52C812.193 44.7733 812.567 44.9 812.98 44.9ZM822.24 46.74C821.867 46.74 821.513 46.6867 821.18 46.58C820.847 46.4867 820.547 46.34 820.28 46.14C820.013 45.9267 819.78 45.66 819.58 45.34C819.393 45.02 819.247 44.64 819.14 44.2C819.033 43.7467 818.98 43.2333 818.98 42.66V37.2H821.26V42.66C821.26 43.0733 821.293 43.4267 821.36 43.72C821.427 44 821.527 44.2333 821.66 44.42C821.793 44.5933 821.947 44.72 822.12 44.8C822.307 44.88 822.5 44.92 822.7 44.92C822.98 44.92 823.233 44.8733 823.46 44.78C823.7 44.6733 823.9 44.52 824.06 44.32C824.233 44.12 824.367 43.8733 824.46 43.58C824.553 43.2733 824.6 42.9133 824.6 42.5V37.2H826.86V45.02C826.86 45.3133 826.867 45.58 826.88 45.82C826.907 46.0467 826.967 46.2733 827.06 46.5H825C824.933 46.3667 824.887 46.2333 824.86 46.1C824.833 45.9667 824.813 45.8333 824.8 45.7C824.8 45.5533 824.8 45.42 824.8 45.3C824.653 45.5267 824.487 45.7333 824.3 45.92C824.113 46.0933 823.907 46.24 823.68 46.36C823.467 46.48 823.233 46.5733 822.98 46.64C822.74 46.7067 822.493 46.74 822.24 46.74ZM833.98 46.7C833.447 46.7 832.98 46.6133 832.58 46.44C832.193 46.2667 831.867 45.9867 831.6 45.6C831.347 45.2133 831.16 44.7 831.04 44.06C830.933 43.42 830.9 42.6267 830.94 41.68L831.2 35L833.54 34.7L833.72 34.68L833.74 34.86C833.687 34.9533 833.633 35.0467 833.58 35.14C833.527 35.2333 833.493 35.3933 833.48 35.62L833.26 38.38L833.36 38.52L833.2 41.64C833.16 42.5067 833.187 43.18 833.28 43.66C833.387 44.1267 833.54 44.4467 833.74 44.62C833.953 44.7933 834.207 44.88 834.5 44.88C834.927 44.88 835.307 44.7933 835.64 44.62C835.987 44.4467 836.307 44.2467 836.6 44.02L837.08 45.66C836.627 45.9933 836.14 46.2533 835.62 46.44C835.113 46.6133 834.567 46.7 833.98 46.7ZM829.18 37.2H836.34L836.32 38.98H829.14L829.18 37.2ZM848.64 46.5V34.04H850.62L853.04 39.76L855.46 34.02H857.44V46.5H855.48V37.8L853.52 42.38H852.42L850.58 37.82V46.5H848.64ZM863.42 46.72C862.753 46.72 862.133 46.6133 861.56 46.4C861 46.1867 860.507 45.88 860.08 45.48C859.667 45.0667 859.347 44.56 859.12 43.96C858.893 43.36 858.78 42.68 858.78 41.92C858.78 41.1467 858.893 40.4533 859.12 39.84C859.347 39.2267 859.653 38.7067 860.04 38.28C860.44 37.8533 860.907 37.5333 861.44 37.32C861.973 37.0933 862.547 36.98 863.16 36.98C863.707 36.98 864.22 37.0733 864.7 37.26C865.18 37.4467 865.6 37.7333 865.96 38.12C866.333 38.4933 866.627 38.9667 866.84 39.54C867.053 40.1 867.16 40.7533 867.16 41.5C867.16 41.6333 867.153 41.7933 867.14 41.98C867.14 42.1667 867.133 42.3267 867.12 42.46H860.96C860.987 42.9 861.073 43.28 861.22 43.6C861.367 43.9067 861.56 44.16 861.8 44.36C862.04 44.56 862.307 44.7133 862.6 44.82C862.893 44.9133 863.2 44.96 863.52 44.96C863.8 44.96 864.067 44.9333 864.32 44.88C864.587 44.8267 864.833 44.7333 865.06 44.6C865.3 44.4667 865.527 44.2933 865.74 44.08L866.9 45.2C866.607 45.5467 866.273 45.84 865.9 46.08C865.54 46.3067 865.147 46.4667 864.72 46.56C864.307 46.6667 863.873 46.72 863.42 46.72ZM861 40.76H864.96C864.96 40.44 864.913 40.1533 864.82 39.9C864.74 39.6467 864.62 39.4333 864.46 39.26C864.3 39.0867 864.1 38.96 863.86 38.88C863.633 38.7867 863.367 38.74 863.06 38.74C862.807 38.74 862.56 38.78 862.32 38.86C862.093 38.9267 861.887 39.0467 861.7 39.22C861.513 39.3933 861.36 39.6067 861.24 39.86C861.12 40.1133 861.04 40.4133 861 40.76Z" fill="#FF8303"/>
<path d="M936.84 46.72C936.013 46.72 935.233 46.6 934.5 46.36C933.78 46.1067 933.18 45.7267 932.7 45.22L933.8 43.36L933.88 43.2L934.06 43.3C934.087 43.3933 934.12 43.4933 934.16 43.6C934.213 43.7067 934.32 43.8333 934.48 43.98C934.813 44.2333 935.18 44.44 935.58 44.6C935.993 44.7467 936.44 44.8267 936.92 44.84C937.227 44.84 937.507 44.8067 937.76 44.74C938.027 44.6733 938.253 44.5733 938.44 44.44C938.627 44.3067 938.773 44.14 938.88 43.94C938.987 43.7267 939.04 43.4867 939.04 43.22C939.04 43.06 939.02 42.9067 938.98 42.76C938.94 42.6133 938.867 42.4733 938.76 42.34C938.667 42.1933 938.527 42.0533 938.34 41.92C938.153 41.7733 937.92 41.62 937.64 41.46C937.36 41.2867 937.007 41.1067 936.58 40.92C935.727 40.5467 935.047 40.1667 934.54 39.78C934.047 39.3933 933.693 38.98 933.48 38.54C933.267 38.1 933.16 37.6 933.16 37.04C933.16 36.4267 933.327 35.88 933.66 35.4C934.007 34.92 934.48 34.54 935.08 34.26C935.68 33.98 936.367 33.84 937.14 33.84C937.66 33.84 938.147 33.9 938.6 34.02C939.053 34.14 939.473 34.32 939.86 34.56C940.247 34.7867 940.6 35.08 940.92 35.44L939.6 36.96L939.48 37.1L939.32 36.98C939.307 36.8733 939.28 36.7733 939.24 36.68C939.213 36.5733 939.127 36.44 938.98 36.28C938.727 36.04 938.453 35.88 938.16 35.8C937.88 35.72 937.547 35.68 937.16 35.68C936.88 35.68 936.633 35.7133 936.42 35.78C936.207 35.8467 936.02 35.94 935.86 36.06C935.713 36.18 935.593 36.32 935.5 36.48C935.42 36.6267 935.38 36.78 935.38 36.94C935.38 37.1 935.4 37.2533 935.44 37.4C935.48 37.5333 935.547 37.6667 935.64 37.8C935.747 37.9333 935.893 38.0733 936.08 38.22C936.28 38.3533 936.533 38.5 936.84 38.66C937.147 38.82 937.527 39 937.98 39.2C938.607 39.4933 939.133 39.78 939.56 40.06C939.987 40.3267 940.32 40.6133 940.56 40.92C940.813 41.2133 940.993 41.54 941.1 41.9C941.207 42.2467 941.26 42.64 941.26 43.08C941.26 43.68 941.107 44.26 940.8 44.82C940.493 45.38 940.013 45.84 939.36 46.2C938.707 46.5467 937.867 46.72 936.84 46.72ZM946.08 42.28L945.34 43.02V46.5H943.04V33.08H945.32H945.5V33.26C945.433 33.34 945.387 33.4267 945.36 33.52C945.347 33.6133 945.34 33.7733 945.34 34V40.56L948.9 37.12C949.007 37.1333 949.12 37.1533 949.24 37.18C949.36 37.1933 949.48 37.2067 949.6 37.22C949.72 37.2333 949.84 37.2467 949.96 37.26C950.08 37.26 950.18 37.26 950.26 37.26H951.34L947.64 40.88L951.84 46.48L949.26 46.58L946.08 42.28ZM953.68 46.5V44.72H955.96V38.98H953.8V37.2H958.24V44.72H960.32V46.5H953.68ZM957 35.66C956.613 35.66 956.28 35.5267 956 35.26C955.72 34.9933 955.58 34.6733 955.58 34.3C955.58 33.9 955.713 33.5733 955.98 33.32C956.247 33.0667 956.587 32.94 957 32.94C957.373 32.94 957.7 33.0733 957.98 33.34C958.273 33.6067 958.42 33.9267 958.42 34.3C958.42 34.6733 958.273 34.9933 957.98 35.26C957.7 35.5267 957.373 35.66 957 35.66ZM963.26 46.5V44.72H965.88V34.86H963.38V33.08H968.16V44.72H970.76V46.5H963.26ZM973.26 46.5V44.72H975.88V34.86H973.38V33.08H978.16V44.72H980.76V46.5H973.26ZM987.18 46.72C986.62 46.72 986.08 46.6667 985.56 46.56C985.04 46.4667 984.56 46.3133 984.12 46.1C983.68 45.8733 983.273 45.5867 982.9 45.24L983.9 43.4L983.98 43.24L984.14 43.34C984.18 43.4333 984.22 43.54 984.26 43.66C984.3 43.7667 984.4 43.8933 984.56 44.04C984.893 44.32 985.273 44.54 985.7 44.7C986.127 44.86 986.633 44.94 987.22 44.94C987.593 44.94 987.907 44.9 988.16 44.82C988.427 44.7267 988.627 44.6067 988.76 44.46C988.907 44.3 988.98 44.12 988.98 43.92C988.98 43.76 988.94 43.62 988.86 43.5C988.78 43.38 988.653 43.2733 988.48 43.18C988.307 43.0867 988.08 42.9933 987.8 42.9C987.52 42.7933 987.187 42.68 986.8 42.56C986.12 42.3867 985.527 42.1733 985.02 41.92C984.527 41.6533 984.147 41.3333 983.88 40.96C983.613 40.5867 983.48 40.1533 983.48 39.66C983.48 39.14 983.627 38.68 983.92 38.28C984.227 37.88 984.653 37.5667 985.2 37.34C985.747 37.1 986.393 36.98 987.14 36.98C987.527 36.98 987.893 37.0133 988.24 37.08C988.587 37.1333 988.913 37.22 989.22 37.34C989.54 37.4467 989.833 37.5933 990.1 37.78C990.38 37.9533 990.64 38.16 990.88 38.4L989.78 39.94L989.64 40.1L989.5 39.98C989.487 39.8733 989.453 39.7733 989.4 39.68C989.36 39.5733 989.26 39.4467 989.1 39.3C988.833 39.1 988.527 38.9533 988.18 38.86C987.847 38.7667 987.513 38.72 987.18 38.72C986.727 38.72 986.333 38.7933 986 38.94C985.68 39.0867 985.52 39.3133 985.52 39.62C985.52 39.7933 985.593 39.9533 985.74 40.1C985.887 40.2333 986.127 40.3667 986.46 40.5C986.807 40.62 987.26 40.7533 987.82 40.9C988.567 41.1 989.173 41.3333 989.64 41.6C990.12 41.8533 990.467 42.16 990.68 42.52C990.907 42.88 991.02 43.3 991.02 43.78C991.02 44.3 990.873 44.7867 990.58 45.24C990.287 45.6933 989.853 46.0533 989.28 46.32C988.72 46.5867 988.02 46.72 987.18 46.72Z" fill="#F0E3CA"/>
<path d="M1056.96 46.5V34.04H1061.2C1062.17 34.04 1062.97 34.2067 1063.58 34.54C1064.21 34.8733 1064.67 35.3133 1064.96 35.86C1065.27 36.4067 1065.42 37.02 1065.42 37.7C1065.42 38.1933 1065.33 38.66 1065.16 39.1C1065 39.5267 1064.75 39.9067 1064.4 40.24C1064.07 40.56 1063.64 40.8133 1063.12 41C1062.61 41.1867 1062.01 41.28 1061.3 41.28H1059.26V46.5H1056.96ZM1059.26 39.4H1061.14C1061.57 39.4 1061.93 39.3267 1062.22 39.18C1062.51 39.0333 1062.73 38.8333 1062.88 38.58C1063.03 38.3267 1063.1 38.0333 1063.1 37.7C1063.1 37.3667 1063.03 37.0733 1062.88 36.82C1062.73 36.5667 1062.51 36.3667 1062.22 36.22C1061.94 36.0733 1061.59 36 1061.16 36H1059.26V39.4ZM1071.42 46.72C1070.75 46.72 1070.13 46.6133 1069.56 46.4C1069 46.1867 1068.51 45.88 1068.08 45.48C1067.67 45.0667 1067.35 44.56 1067.12 43.96C1066.89 43.36 1066.78 42.68 1066.78 41.92C1066.78 41.1467 1066.89 40.4533 1067.12 39.84C1067.35 39.2267 1067.65 38.7067 1068.04 38.28C1068.44 37.8533 1068.91 37.5333 1069.44 37.32C1069.97 37.0933 1070.55 36.98 1071.16 36.98C1071.71 36.98 1072.22 37.0733 1072.7 37.26C1073.18 37.4467 1073.6 37.7333 1073.96 38.12C1074.33 38.4933 1074.63 38.9667 1074.84 39.54C1075.05 40.1 1075.16 40.7533 1075.16 41.5C1075.16 41.6333 1075.15 41.7933 1075.14 41.98C1075.14 42.1667 1075.13 42.3267 1075.12 42.46H1068.96C1068.99 42.9 1069.07 43.28 1069.22 43.6C1069.37 43.9067 1069.56 44.16 1069.8 44.36C1070.04 44.56 1070.31 44.7133 1070.6 44.82C1070.89 44.9133 1071.2 44.96 1071.52 44.96C1071.8 44.96 1072.07 44.9333 1072.32 44.88C1072.59 44.8267 1072.83 44.7333 1073.06 44.6C1073.3 44.4667 1073.53 44.2933 1073.74 44.08L1074.9 45.2C1074.61 45.5467 1074.27 45.84 1073.9 46.08C1073.54 46.3067 1073.15 46.4667 1072.72 46.56C1072.31 46.6667 1071.87 46.72 1071.42 46.72ZM1069 40.76H1072.96C1072.96 40.44 1072.91 40.1533 1072.82 39.9C1072.74 39.6467 1072.62 39.4333 1072.46 39.26C1072.3 39.0867 1072.1 38.96 1071.86 38.88C1071.63 38.7867 1071.37 38.74 1071.06 38.74C1070.81 38.74 1070.56 38.78 1070.32 38.86C1070.09 38.9267 1069.89 39.0467 1069.7 39.22C1069.51 39.3933 1069.36 39.6067 1069.24 39.86C1069.12 40.1133 1069.04 40.4133 1069 40.76ZM1081.98 46.7C1081.45 46.7 1080.98 46.6133 1080.58 46.44C1080.19 46.2667 1079.87 45.9867 1079.6 45.6C1079.35 45.2133 1079.16 44.7 1079.04 44.06C1078.93 43.42 1078.9 42.6267 1078.94 41.68L1079.2 35L1081.54 34.7L1081.72 34.68L1081.74 34.86C1081.69 34.9533 1081.63 35.0467 1081.58 35.14C1081.53 35.2333 1081.49 35.3933 1081.48 35.62L1081.26 38.38L1081.36 38.52L1081.2 41.64C1081.16 42.5067 1081.19 43.18 1081.28 43.66C1081.39 44.1267 1081.54 44.4467 1081.74 44.62C1081.95 44.7933 1082.21 44.88 1082.5 44.88C1082.93 44.88 1083.31 44.7933 1083.64 44.62C1083.99 44.4467 1084.31 44.2467 1084.6 44.02L1085.08 45.66C1084.63 45.9933 1084.14 46.2533 1083.62 46.44C1083.11 46.6133 1082.57 46.7 1081.98 46.7ZM1077.18 37.2H1084.34L1084.32 38.98H1077.14L1077.18 37.2ZM1088.1 41.08V39.2H1093.94V41.08H1088.1ZM1096.96 46.5V34.04H1101.2C1102.17 34.04 1102.97 34.2067 1103.58 34.54C1104.21 34.8733 1104.67 35.3133 1104.96 35.86C1105.27 36.4067 1105.42 37.02 1105.42 37.7C1105.42 38.1933 1105.33 38.66 1105.16 39.1C1105 39.5267 1104.75 39.9067 1104.4 40.24C1104.07 40.56 1103.64 40.8133 1103.12 41C1102.61 41.1867 1102.01 41.28 1101.3 41.28H1099.26V46.5H1096.96ZM1099.26 39.4H1101.14C1101.57 39.4 1101.93 39.3267 1102.22 39.18C1102.51 39.0333 1102.73 38.8333 1102.88 38.58C1103.03 38.3267 1103.1 38.0333 1103.1 37.7C1103.1 37.3667 1103.03 37.0733 1102.88 36.82C1102.73 36.5667 1102.51 36.3667 1102.22 36.22C1101.94 36.0733 1101.59 36 1101.16 36H1099.26V39.4ZM1107.78 37.2H1110.12L1110.1 39.8L1109.84 39.64C1109.89 39.2267 1110.01 38.86 1110.18 38.54C1110.37 38.22 1110.59 37.94 1110.86 37.7C1111.14 37.46 1111.44 37.28 1111.76 37.16C1112.09 37.04 1112.43 36.98 1112.78 36.98C1113.3 36.98 1113.77 37.0667 1114.18 37.24C1114.61 37.4 1115 37.6667 1115.36 38.04L1114.4 39.94L1114.34 40.1L1114.16 40.02C1114.12 39.9133 1114.08 39.8067 1114.04 39.7C1114 39.58 1113.9 39.4467 1113.74 39.3C1113.55 39.1533 1113.35 39.04 1113.14 38.96C1112.94 38.88 1112.72 38.84 1112.48 38.84C1112.16 38.84 1111.85 38.8933 1111.56 39C1111.27 39.1067 1111.01 39.2733 1110.78 39.5C1110.57 39.7267 1110.39 40.02 1110.26 40.38C1110.14 40.7267 1110.08 41.14 1110.08 41.62V46.5H1107.78V37.2ZM1120.98 46.7C1120.15 46.7 1119.4 46.5 1118.72 46.1C1118.05 45.6867 1117.53 45.1133 1117.14 44.38C1116.75 43.6467 1116.56 42.8 1116.56 41.84C1116.56 40.92 1116.75 40.0933 1117.14 39.36C1117.53 38.6267 1118.05 38.0467 1118.72 37.62C1119.4 37.1933 1120.15 36.98 1120.98 36.98C1121.82 36.98 1122.57 37.1933 1123.24 37.62C1123.92 38.0467 1124.45 38.6267 1124.84 39.36C1125.24 40.0933 1125.44 40.92 1125.44 41.84C1125.44 42.8 1125.24 43.6467 1124.84 44.38C1124.45 45.1133 1123.92 45.6867 1123.24 46.1C1122.57 46.5 1121.82 46.7 1120.98 46.7ZM1120.98 44.9C1121.42 44.9 1121.8 44.7733 1122.12 44.52C1122.44 44.2533 1122.69 43.8933 1122.88 43.44C1123.08 42.9733 1123.18 42.44 1123.18 41.84C1123.18 41.2133 1123.08 40.6733 1122.88 40.22C1122.69 39.7667 1122.44 39.42 1122.12 39.18C1121.8 38.9267 1121.42 38.8 1120.98 38.8C1120.58 38.8 1120.21 38.9267 1119.88 39.18C1119.56 39.42 1119.3 39.7667 1119.1 40.22C1118.91 40.6733 1118.82 41.2133 1118.82 41.84C1118.82 42.44 1118.91 42.9733 1119.1 43.44C1119.29 43.8933 1119.54 44.2533 1119.86 44.52C1120.19 44.7733 1120.57 44.9 1120.98 44.9ZM1129.82 50.02C1129.19 50.02 1128.62 49.9 1128.1 49.66C1127.58 49.42 1127.11 49.0667 1126.7 48.6L1127.92 46.96L1128.04 46.82L1128.2 46.92C1128.23 47.0267 1128.25 47.1333 1128.28 47.24C1128.31 47.3467 1128.39 47.4867 1128.54 47.66C1128.7 47.8067 1128.88 47.92 1129.08 48C1129.29 48.0933 1129.54 48.14 1129.82 48.14C1130.15 48.14 1130.43 48.0667 1130.66 47.92C1130.89 47.7733 1131.05 47.5467 1131.16 47.24C1131.27 46.9467 1131.32 46.5733 1131.32 46.12V38.98H1128.08V37.2H1133.62V45.92C1133.62 46.8933 1133.44 47.68 1133.08 48.28C1132.72 48.8933 1132.25 49.3333 1131.68 49.6C1131.11 49.88 1130.49 50.02 1129.82 50.02ZM1132.32 35.66C1131.93 35.66 1131.6 35.5267 1131.32 35.26C1131.04 34.9933 1130.9 34.6733 1130.9 34.3C1130.9 33.9 1131.03 33.5733 1131.3 33.32C1131.57 33.0667 1131.91 32.94 1132.32 32.94C1132.69 32.94 1133.02 33.0733 1133.3 33.34C1133.59 33.6067 1133.74 33.9267 1133.74 34.3C1133.74 34.6733 1133.59 34.9933 1133.3 35.26C1133.02 35.5267 1132.69 35.66 1132.32 35.66ZM1141.42 46.72C1140.75 46.72 1140.13 46.6133 1139.56 46.4C1139 46.1867 1138.51 45.88 1138.08 45.48C1137.67 45.0667 1137.35 44.56 1137.12 43.96C1136.89 43.36 1136.78 42.68 1136.78 41.92C1136.78 41.1467 1136.89 40.4533 1137.12 39.84C1137.35 39.2267 1137.65 38.7067 1138.04 38.28C1138.44 37.8533 1138.91 37.5333 1139.44 37.32C1139.97 37.0933 1140.55 36.98 1141.16 36.98C1141.71 36.98 1142.22 37.0733 1142.7 37.26C1143.18 37.4467 1143.6 37.7333 1143.96 38.12C1144.33 38.4933 1144.63 38.9667 1144.84 39.54C1145.05 40.1 1145.16 40.7533 1145.16 41.5C1145.16 41.6333 1145.15 41.7933 1145.14 41.98C1145.14 42.1667 1145.13 42.3267 1145.12 42.46H1138.96C1138.99 42.9 1139.07 43.28 1139.22 43.6C1139.37 43.9067 1139.56 44.16 1139.8 44.36C1140.04 44.56 1140.31 44.7133 1140.6 44.82C1140.89 44.9133 1141.2 44.96 1141.52 44.96C1141.8 44.96 1142.07 44.9333 1142.32 44.88C1142.59 44.8267 1142.83 44.7333 1143.06 44.6C1143.3 44.4667 1143.53 44.2933 1143.74 44.08L1144.9 45.2C1144.61 45.5467 1144.27 45.84 1143.9 46.08C1143.54 46.3067 1143.15 46.4667 1142.72 46.56C1142.31 46.6667 1141.87 46.72 1141.42 46.72ZM1139 40.76H1142.96C1142.96 40.44 1142.91 40.1533 1142.82 39.9C1142.74 39.6467 1142.62 39.4333 1142.46 39.26C1142.3 39.0867 1142.1 38.96 1141.86 38.88C1141.63 38.7867 1141.37 38.74 1141.06 38.74C1140.81 38.74 1140.56 38.78 1140.32 38.86C1140.09 38.9267 1139.89 39.0467 1139.7 39.22C1139.51 39.3933 1139.36 39.6067 1139.24 39.86C1139.12 40.1133 1139.04 40.4133 1139 40.76ZM1151.56 46.74C1150.88 46.74 1150.25 46.62 1149.66 46.38C1149.09 46.14 1148.58 45.8067 1148.14 45.38C1147.71 44.9533 1147.38 44.4467 1147.14 43.86C1146.9 43.2733 1146.78 42.6267 1146.78 41.92C1146.78 41.24 1146.9 40.6 1147.14 40C1147.38 39.4 1147.71 38.88 1148.14 38.44C1148.58 37.9867 1149.09 37.6333 1149.66 37.38C1150.25 37.1133 1150.89 36.98 1151.58 36.98C1152.43 36.98 1153.18 37.14 1153.82 37.46C1154.46 37.78 1154.97 38.22 1155.34 38.78L1154.08 40.16L1153.96 40.3L1153.8 40.18C1153.8 40.0733 1153.79 39.9667 1153.76 39.86C1153.73 39.74 1153.65 39.6 1153.5 39.44C1153.25 39.1867 1152.97 39.02 1152.66 38.94C1152.35 38.8467 1152 38.8 1151.6 38.8C1151.27 38.8 1150.95 38.8733 1150.64 39.02C1150.35 39.1533 1150.08 39.3533 1149.84 39.62C1149.6 39.8733 1149.41 40.1933 1149.28 40.58C1149.15 40.9667 1149.08 41.4133 1149.08 41.92C1149.08 42.3733 1149.15 42.7867 1149.28 43.16C1149.43 43.52 1149.61 43.8333 1149.84 44.1C1150.08 44.3533 1150.35 44.5533 1150.66 44.7C1150.98 44.8333 1151.31 44.9 1151.66 44.9C1151.94 44.9 1152.21 44.86 1152.48 44.78C1152.75 44.7 1153.01 44.58 1153.26 44.42C1153.53 44.2467 1153.77 44.02 1154 43.74L1155.26 45.18C1154.77 45.7267 1154.19 46.1267 1153.54 46.38C1152.89 46.62 1152.23 46.74 1151.56 46.74ZM1161.98 46.7C1161.45 46.7 1160.98 46.6133 1160.58 46.44C1160.19 46.2667 1159.87 45.9867 1159.6 45.6C1159.35 45.2133 1159.16 44.7 1159.04 44.06C1158.93 43.42 1158.9 42.6267 1158.94 41.68L1159.2 35L1161.54 34.7L1161.72 34.68L1161.74 34.86C1161.69 34.9533 1161.63 35.0467 1161.58 35.14C1161.53 35.2333 1161.49 35.3933 1161.48 35.62L1161.26 38.38L1161.36 38.52L1161.2 41.64C1161.16 42.5067 1161.19 43.18 1161.28 43.66C1161.39 44.1267 1161.54 44.4467 1161.74 44.62C1161.95 44.7933 1162.21 44.88 1162.5 44.88C1162.93 44.88 1163.31 44.7933 1163.64 44.62C1163.99 44.4467 1164.31 44.2467 1164.6 44.02L1165.08 45.66C1164.63 45.9933 1164.14 46.2533 1163.62 46.44C1163.11 46.6133 1162.57 46.7 1161.98 46.7ZM1157.18 37.2H1164.34L1164.32 38.98H1157.14L1157.18 37.2ZM1171.18 46.72C1170.62 46.72 1170.08 46.6667 1169.56 46.56C1169.04 46.4667 1168.56 46.3133 1168.12 46.1C1167.68 45.8733 1167.27 45.5867 1166.9 45.24L1167.9 43.4L1167.98 43.24L1168.14 43.34C1168.18 43.4333 1168.22 43.54 1168.26 43.66C1168.3 43.7667 1168.4 43.8933 1168.56 44.04C1168.89 44.32 1169.27 44.54 1169.7 44.7C1170.13 44.86 1170.63 44.94 1171.22 44.94C1171.59 44.94 1171.91 44.9 1172.16 44.82C1172.43 44.7267 1172.63 44.6067 1172.76 44.46C1172.91 44.3 1172.98 44.12 1172.98 43.92C1172.98 43.76 1172.94 43.62 1172.86 43.5C1172.78 43.38 1172.65 43.2733 1172.48 43.18C1172.31 43.0867 1172.08 42.9933 1171.8 42.9C1171.52 42.7933 1171.19 42.68 1170.8 42.56C1170.12 42.3867 1169.53 42.1733 1169.02 41.92C1168.53 41.6533 1168.15 41.3333 1167.88 40.96C1167.61 40.5867 1167.48 40.1533 1167.48 39.66C1167.48 39.14 1167.63 38.68 1167.92 38.28C1168.23 37.88 1168.65 37.5667 1169.2 37.34C1169.75 37.1 1170.39 36.98 1171.14 36.98C1171.53 36.98 1171.89 37.0133 1172.24 37.08C1172.59 37.1333 1172.91 37.22 1173.22 37.34C1173.54 37.4467 1173.83 37.5933 1174.1 37.78C1174.38 37.9533 1174.64 38.16 1174.88 38.4L1173.78 39.94L1173.64 40.1L1173.5 39.98C1173.49 39.8733 1173.45 39.7733 1173.4 39.68C1173.36 39.5733 1173.26 39.4467 1173.1 39.3C1172.83 39.1 1172.53 38.9533 1172.18 38.86C1171.85 38.7667 1171.51 38.72 1171.18 38.72C1170.73 38.72 1170.33 38.7933 1170 38.94C1169.68 39.0867 1169.52 39.3133 1169.52 39.62C1169.52 39.7933 1169.59 39.9533 1169.74 40.1C1169.89 40.2333 1170.13 40.3667 1170.46 40.5C1170.81 40.62 1171.26 40.7533 1171.82 40.9C1172.57 41.1 1173.17 41.3333 1173.64 41.6C1174.12 41.8533 1174.47 42.16 1174.68 42.52C1174.91 42.88 1175.02 43.3 1175.02 43.78C1175.02 44.3 1174.87 44.7867 1174.58 45.24C1174.29 45.6933 1173.85 46.0533 1173.28 46.32C1172.72 46.5867 1172.02 46.72 1171.18 46.72Z" fill="#F0E3CA"/>
<path d="M1245.58 46.72C1244.9 46.72 1244.26 46.6 1243.66 46.36C1243.06 46.1067 1242.53 45.72 1242.06 45.2C1241.61 44.68 1241.25 44.02 1241 43.22C1240.75 42.4067 1240.62 41.4467 1240.62 40.34C1240.62 39.3667 1240.72 38.5133 1240.92 37.78C1241.12 37.0467 1241.39 36.4333 1241.72 35.94C1242.07 35.4333 1242.45 35.0267 1242.88 34.72C1243.32 34.4133 1243.77 34.1933 1244.24 34.06C1244.72 33.9267 1245.19 33.86 1245.66 33.86C1246.61 33.86 1247.41 34.0733 1248.06 34.5C1248.73 34.9267 1249.24 35.5267 1249.6 36.3L1248.18 37.36L1248.02 37.46L1247.92 37.3C1247.93 37.1933 1247.92 37.0933 1247.88 37C1247.85 36.9067 1247.79 36.7667 1247.68 36.58C1247.39 36.22 1247.08 35.98 1246.76 35.86C1246.45 35.74 1246.13 35.68 1245.78 35.68C1245.39 35.68 1245.03 35.78 1244.68 35.98C1244.33 36.1667 1244.02 36.4533 1243.74 36.84C1243.46 37.2267 1243.24 37.7067 1243.08 38.28C1242.93 38.84 1242.86 39.4933 1242.86 40.24C1242.86 40.96 1242.93 41.6067 1243.06 42.18C1243.21 42.74 1243.4 43.22 1243.64 43.62C1243.89 44.02 1244.19 44.3267 1244.52 44.54C1244.87 44.7533 1245.24 44.86 1245.64 44.86C1245.96 44.86 1246.25 44.8133 1246.52 44.72C1246.8 44.6267 1247.05 44.48 1247.28 44.28C1247.51 44.08 1247.71 43.8133 1247.9 43.48L1249.46 44.64C1248.99 45.3867 1248.45 45.92 1247.82 46.24C1247.19 46.56 1246.45 46.72 1245.58 46.72ZM1254.98 46.7C1254.15 46.7 1253.4 46.5 1252.72 46.1C1252.05 45.6867 1251.53 45.1133 1251.14 44.38C1250.75 43.6467 1250.56 42.8 1250.56 41.84C1250.56 40.92 1250.75 40.0933 1251.14 39.36C1251.53 38.6267 1252.05 38.0467 1252.72 37.62C1253.4 37.1933 1254.15 36.98 1254.98 36.98C1255.82 36.98 1256.57 37.1933 1257.24 37.62C1257.92 38.0467 1258.45 38.6267 1258.84 39.36C1259.24 40.0933 1259.44 40.92 1259.44 41.84C1259.44 42.8 1259.24 43.6467 1258.84 44.38C1258.45 45.1133 1257.92 45.6867 1257.24 46.1C1256.57 46.5 1255.82 46.7 1254.98 46.7ZM1254.98 44.9C1255.42 44.9 1255.8 44.7733 1256.12 44.52C1256.44 44.2533 1256.69 43.8933 1256.88 43.44C1257.08 42.9733 1257.18 42.44 1257.18 41.84C1257.18 41.2133 1257.08 40.6733 1256.88 40.22C1256.69 39.7667 1256.44 39.42 1256.12 39.18C1255.8 38.9267 1255.42 38.8 1254.98 38.8C1254.58 38.8 1254.21 38.9267 1253.88 39.18C1253.56 39.42 1253.3 39.7667 1253.1 40.22C1252.91 40.6733 1252.82 41.2133 1252.82 41.84C1252.82 42.44 1252.91 42.9733 1253.1 43.44C1253.29 43.8933 1253.54 44.2533 1253.86 44.52C1254.19 44.7733 1254.57 44.9 1254.98 44.9ZM1261.1 46.5V37.2H1263.36V38.48C1263.59 38.1867 1263.83 37.9267 1264.1 37.7C1264.37 37.4733 1264.66 37.3 1264.98 37.18C1265.31 37.0467 1265.67 36.98 1266.04 36.98C1266.59 36.98 1267.09 37.1133 1267.54 37.38C1267.99 37.6333 1268.36 38.0467 1268.64 38.62C1268.92 39.1933 1269.06 39.9467 1269.06 40.88V46.5H1266.8V40.92C1266.8 40.4 1266.75 39.98 1266.64 39.66C1266.53 39.34 1266.37 39.1067 1266.16 38.96C1265.96 38.8 1265.72 38.72 1265.44 38.72C1265.19 38.72 1264.93 38.7733 1264.68 38.88C1264.44 38.9733 1264.22 39.12 1264.02 39.32C1263.82 39.52 1263.66 39.76 1263.54 40.04C1263.42 40.3067 1263.36 40.6133 1263.36 40.96V46.5H1261.1ZM1275.98 46.7C1275.45 46.7 1274.98 46.6133 1274.58 46.44C1274.19 46.2667 1273.87 45.9867 1273.6 45.6C1273.35 45.2133 1273.16 44.7 1273.04 44.06C1272.93 43.42 1272.9 42.6267 1272.94 41.68L1273.2 35L1275.54 34.7L1275.72 34.68L1275.74 34.86C1275.69 34.9533 1275.63 35.0467 1275.58 35.14C1275.53 35.2333 1275.49 35.3933 1275.48 35.62L1275.26 38.38L1275.36 38.52L1275.2 41.64C1275.16 42.5067 1275.19 43.18 1275.28 43.66C1275.39 44.1267 1275.54 44.4467 1275.74 44.62C1275.95 44.7933 1276.21 44.88 1276.5 44.88C1276.93 44.88 1277.31 44.7933 1277.64 44.62C1277.99 44.4467 1278.31 44.2467 1278.6 44.02L1279.08 45.66C1278.63 45.9933 1278.14 46.2533 1277.62 46.44C1277.11 46.6133 1276.57 46.7 1275.98 46.7ZM1271.18 37.2H1278.34L1278.32 38.98H1271.14L1271.18 37.2ZM1283.96 46.74C1282.93 46.74 1282.13 46.5 1281.56 46.02C1281 45.5267 1280.72 44.8933 1280.72 44.12C1280.72 43.6267 1280.83 43.1733 1281.04 42.76C1281.27 42.3333 1281.6 41.9667 1282.04 41.66C1282.48 41.3533 1283.03 41.12 1283.68 40.96C1284.33 40.7867 1285.08 40.7 1285.92 40.7C1286.03 40.7 1286.16 40.7 1286.32 40.7C1286.48 40.7 1286.65 40.7067 1286.84 40.72C1287.03 40.72 1287.2 40.7333 1287.36 40.76L1287.42 42.32C1287.29 42.3067 1287.13 42.3 1286.94 42.3C1286.75 42.2867 1286.56 42.28 1286.36 42.28C1286.17 42.2667 1286.01 42.26 1285.88 42.26C1285.35 42.26 1284.89 42.3 1284.52 42.38C1284.16 42.46 1283.87 42.5733 1283.64 42.72C1283.41 42.8533 1283.25 43.02 1283.14 43.22C1283.03 43.4067 1282.98 43.6133 1282.98 43.84C1282.98 44.0533 1283.01 44.2333 1283.08 44.38C1283.16 44.5267 1283.26 44.6467 1283.38 44.74C1283.51 44.82 1283.67 44.88 1283.84 44.92C1284.01 44.96 1284.2 44.98 1284.4 44.98C1284.8 44.98 1285.15 44.92 1285.44 44.8C1285.75 44.6667 1286 44.46 1286.2 44.18C1286.41 43.9 1286.57 43.5533 1286.66 43.14C1286.77 42.7133 1286.82 42.2133 1286.82 41.64C1286.82 40.8667 1286.74 40.2733 1286.58 39.86C1286.42 39.4467 1286.19 39.16 1285.88 39C1285.57 38.8267 1285.19 38.74 1284.72 38.74C1284.29 38.74 1283.89 38.8133 1283.5 38.96C1283.13 39.0933 1282.76 39.3467 1282.4 39.72L1281.16 38.36C1281.68 37.8667 1282.26 37.5133 1282.9 37.3C1283.54 37.0867 1284.18 36.98 1284.82 36.98C1285.41 36.98 1285.95 37.0467 1286.46 37.18C1286.97 37.3133 1287.41 37.54 1287.78 37.86C1288.17 38.1667 1288.47 38.5933 1288.68 39.14C1288.91 39.6733 1289.02 40.34 1289.02 41.14V46.5H1286.68V45.5C1286.51 45.7267 1286.32 45.92 1286.12 46.08C1285.92 46.24 1285.71 46.3667 1285.48 46.46C1285.25 46.5533 1285.01 46.62 1284.76 46.66C1284.51 46.7133 1284.24 46.74 1283.96 46.74ZM1295.56 46.74C1294.88 46.74 1294.25 46.62 1293.66 46.38C1293.09 46.14 1292.58 45.8067 1292.14 45.38C1291.71 44.9533 1291.38 44.4467 1291.14 43.86C1290.9 43.2733 1290.78 42.6267 1290.78 41.92C1290.78 41.24 1290.9 40.6 1291.14 40C1291.38 39.4 1291.71 38.88 1292.14 38.44C1292.58 37.9867 1293.09 37.6333 1293.66 37.38C1294.25 37.1133 1294.89 36.98 1295.58 36.98C1296.43 36.98 1297.18 37.14 1297.82 37.46C1298.46 37.78 1298.97 38.22 1299.34 38.78L1298.08 40.16L1297.96 40.3L1297.8 40.18C1297.8 40.0733 1297.79 39.9667 1297.76 39.86C1297.73 39.74 1297.65 39.6 1297.5 39.44C1297.25 39.1867 1296.97 39.02 1296.66 38.94C1296.35 38.8467 1296 38.8 1295.6 38.8C1295.27 38.8 1294.95 38.8733 1294.64 39.02C1294.35 39.1533 1294.08 39.3533 1293.84 39.62C1293.6 39.8733 1293.41 40.1933 1293.28 40.58C1293.15 40.9667 1293.08 41.4133 1293.08 41.92C1293.08 42.3733 1293.15 42.7867 1293.28 43.16C1293.43 43.52 1293.61 43.8333 1293.84 44.1C1294.08 44.3533 1294.35 44.5533 1294.66 44.7C1294.98 44.8333 1295.31 44.9 1295.66 44.9C1295.94 44.9 1296.21 44.86 1296.48 44.78C1296.75 44.7 1297.01 44.58 1297.26 44.42C1297.53 44.2467 1297.77 44.02 1298 43.74L1299.26 45.18C1298.77 45.7267 1298.19 46.1267 1297.54 46.38C1296.89 46.62 1296.23 46.74 1295.56 46.74ZM1305.98 46.7C1305.45 46.7 1304.98 46.6133 1304.58 46.44C1304.19 46.2667 1303.87 45.9867 1303.6 45.6C1303.35 45.2133 1303.16 44.7 1303.04 44.06C1302.93 43.42 1302.9 42.6267 1302.94 41.68L1303.2 35L1305.54 34.7L1305.72 34.68L1305.74 34.86C1305.69 34.9533 1305.63 35.0467 1305.58 35.14C1305.53 35.2333 1305.49 35.3933 1305.48 35.62L1305.26 38.38L1305.36 38.52L1305.2 41.64C1305.16 42.5067 1305.19 43.18 1305.28 43.66C1305.39 44.1267 1305.54 44.4467 1305.74 44.62C1305.95 44.7933 1306.21 44.88 1306.5 44.88C1306.93 44.88 1307.31 44.7933 1307.64 44.62C1307.99 44.4467 1308.31 44.2467 1308.6 44.02L1309.08 45.66C1308.63 45.9933 1308.14 46.2533 1307.62 46.44C1307.11 46.6133 1306.57 46.7 1305.98 46.7ZM1301.18 37.2H1308.34L1308.32 38.98H1301.14L1301.18 37.2ZM1315.18 46.72C1314.62 46.72 1314.08 46.6667 1313.56 46.56C1313.04 46.4667 1312.56 46.3133 1312.12 46.1C1311.68 45.8733 1311.27 45.5867 1310.9 45.24L1311.9 43.4L1311.98 43.24L1312.14 43.34C1312.18 43.4333 1312.22 43.54 1312.26 43.66C1312.3 43.7667 1312.4 43.8933 1312.56 44.04C1312.89 44.32 1313.27 44.54 1313.7 44.7C1314.13 44.86 1314.63 44.94 1315.22 44.94C1315.59 44.94 1315.91 44.9 1316.16 44.82C1316.43 44.7267 1316.63 44.6067 1316.76 44.46C1316.91 44.3 1316.98 44.12 1316.98 43.92C1316.98 43.76 1316.94 43.62 1316.86 43.5C1316.78 43.38 1316.65 43.2733 1316.48 43.18C1316.31 43.0867 1316.08 42.9933 1315.8 42.9C1315.52 42.7933 1315.19 42.68 1314.8 42.56C1314.12 42.3867 1313.53 42.1733 1313.02 41.92C1312.53 41.6533 1312.15 41.3333 1311.88 40.96C1311.61 40.5867 1311.48 40.1533 1311.48 39.66C1311.48 39.14 1311.63 38.68 1311.92 38.28C1312.23 37.88 1312.65 37.5667 1313.2 37.34C1313.75 37.1 1314.39 36.98 1315.14 36.98C1315.53 36.98 1315.89 37.0133 1316.24 37.08C1316.59 37.1333 1316.91 37.22 1317.22 37.34C1317.54 37.4467 1317.83 37.5933 1318.1 37.78C1318.38 37.9533 1318.64 38.16 1318.88 38.4L1317.78 39.94L1317.64 40.1L1317.5 39.98C1317.49 39.8733 1317.45 39.7733 1317.4 39.68C1317.36 39.5733 1317.26 39.4467 1317.1 39.3C1316.83 39.1 1316.53 38.9533 1316.18 38.86C1315.85 38.7667 1315.51 38.72 1315.18 38.72C1314.73 38.72 1314.33 38.7933 1314 38.94C1313.68 39.0867 1313.52 39.3133 1313.52 39.62C1313.52 39.7933 1313.59 39.9533 1313.74 40.1C1313.89 40.2333 1314.13 40.3667 1314.46 40.5C1314.81 40.62 1315.26 40.7533 1315.82 40.9C1316.57 41.1 1317.17 41.3333 1317.64 41.6C1318.12 41.8533 1318.47 42.16 1318.68 42.52C1318.91 42.88 1319.02 43.3 1319.02 43.78C1319.02 44.3 1318.87 44.7867 1318.58 45.24C1318.29 45.6933 1317.85 46.0533 1317.28 46.32C1316.72 46.5867 1316.02 46.72 1315.18 46.72Z" fill="#F0E3CA"/>
</svg>
